<svg width="248" height="365" viewBox="0 0 248 365" fill="none" xmlns="http://www.w3.org/2000/svg">
<path fill-rule="evenodd" clip-rule="evenodd" d="M506.356 317.374C489.353 301.094 466.165 281.005 440.271 275.074C432.165 273.218 423.793 272.748 415.263 274.216C409.142 272.968 402.875 272.525 396.507 273.121C395.898 272.965 395.287 272.817 394.674 272.677C390.061 271.62 385.36 271.013 380.594 270.956C378.337 270.217 376.055 269.578 373.753 269.051C373.035 268.886 372.316 268.733 371.594 268.591C355.412 253.76 334.83 237.735 312.176 232.547C299.22 229.579 285.582 230.155 271.707 236.524C257.834 242.893 243.746 255.043 229.869 275.186C197.548 322.104 196.859 365.062 196.328 398.115C196.279 401.184 196.231 404.167 196.16 407.061C195.737 424.11 194.485 437.949 187.356 447.749C180.24 457.529 167.206 463.363 143.009 464.198L143.008 464.787C167.255 463.95 180.511 458.103 187.788 448.101C195.05 438.12 196.29 424.078 196.712 407.057C196.784 404.161 196.832 401.177 196.881 398.109C197.413 365.063 198.101 322.281 230.311 275.525C244.143 255.446 258.156 243.379 271.911 237.065C285.664 230.751 299.182 230.177 312.043 233.123C334.231 238.205 354.454 253.76 370.505 268.385C369.983 268.29 369.459 268.202 368.934 268.119C368.079 267.752 367.219 267.398 366.356 267.057C353.558 257.237 339.052 248.638 323.579 245.094C310.623 242.126 296.985 242.702 283.11 249.072C269.237 255.44 255.149 267.59 241.272 287.733C208.951 334.651 208.262 377.609 207.732 410.662L207.731 410.664C207.682 413.732 207.634 416.715 207.563 419.608C207.14 436.657 205.889 450.496 198.759 460.296C191.644 470.076 178.609 475.91 154.412 476.745L154.411 477.334C178.658 476.497 191.915 470.65 199.191 460.648C206.453 450.667 207.694 436.625 208.115 419.604C208.187 416.712 208.235 413.731 208.284 410.667L208.285 410.657C208.816 377.61 209.504 334.828 241.714 288.072C255.546 267.993 269.559 255.926 283.314 249.612C297.067 243.298 310.585 242.724 323.446 245.67C338.183 249.046 352.053 257.041 364.41 266.315C364.232 266.25 364.053 266.185 363.875 266.12C355.608 261.331 346.858 257.509 337.775 255.428C324.819 252.461 311.181 253.036 297.306 259.406C283.433 265.775 269.344 277.925 255.468 298.068C223.147 344.986 222.458 387.944 221.927 420.997C221.878 424.066 221.83 427.049 221.758 429.943C221.336 446.992 220.084 460.831 212.954 470.631C205.839 480.411 192.805 486.245 168.608 487.08L168.607 487.669C192.853 486.832 206.11 480.984 213.387 470.983C220.649 461.001 221.889 446.96 222.311 429.939C222.383 427.043 222.431 424.059 222.48 420.991C223.012 387.945 223.7 345.162 255.91 298.407C269.742 278.328 283.754 266.261 297.51 259.946C311.263 253.633 324.781 253.059 337.642 256.005C345.668 257.843 353.437 261.052 360.844 265.091C358.791 264.437 356.719 263.866 354.629 263.388C341.673 260.42 328.035 260.996 314.16 267.366C300.287 273.734 286.198 285.884 272.322 306.027C240.001 352.945 239.312 395.903 238.781 428.956C238.732 432.025 238.684 435.009 238.612 437.902C238.19 454.951 236.938 468.79 229.808 478.59C222.693 488.37 209.659 494.204 185.462 495.039L185.461 495.628C209.707 494.791 222.964 488.944 230.241 478.942C237.503 468.961 238.743 454.919 239.165 437.898C239.237 435.003 239.285 432.019 239.334 428.951C239.866 395.904 240.554 353.122 272.764 306.366C286.596 286.287 300.609 274.22 314.364 267.906C328.117 261.592 341.635 261.018 354.496 263.964C357.584 264.672 360.633 265.582 363.639 266.664C364.199 266.988 364.757 267.318 365.312 267.651C354.926 266.598 344.178 268.027 333.284 273.028C319.411 279.397 305.322 291.547 291.446 311.69C259.125 358.608 258.436 401.566 257.905 434.619C257.856 437.688 257.808 440.672 257.736 443.565C257.314 460.614 256.062 474.453 248.932 484.253C241.817 494.033 228.783 499.867 204.586 500.702L204.585 501.291C228.831 500.454 242.088 494.607 249.365 484.605C256.627 474.624 257.867 460.582 258.289 443.561C258.36 440.695 258.408 437.742 258.457 434.707L258.457 434.682L258.457 434.671L258.457 434.664L258.458 434.644L258.458 434.638L258.458 434.619L258.458 434.613C258.99 401.567 259.678 358.785 291.888 312.029C305.72 291.95 319.732 279.883 333.488 273.569C344.73 268.408 355.814 267.082 366.511 268.379C367.512 268.994 368.506 269.622 369.491 270.263C370.039 270.702 370.584 271.144 371.125 271.586C365.545 272.405 359.895 274.043 354.205 276.655C340.332 283.023 326.244 295.173 312.367 315.317C280.046 362.234 279.357 405.192 278.827 438.245L278.827 438.247C278.777 441.315 278.73 444.298 278.658 447.191C278.235 464.24 276.984 478.08 269.854 487.88C262.739 497.659 249.704 503.493 225.507 504.328L225.507 504.917C249.753 504.08 263.01 498.233 270.286 488.231C277.548 478.25 278.789 464.208 279.211 447.187C279.282 444.298 279.33 441.321 279.379 438.26L279.379 438.26L279.38 438.241L279.38 438.24C279.911 405.193 280.6 362.411 312.809 315.655C326.641 295.576 340.654 283.51 354.409 277.195C360.239 274.519 366.026 272.874 371.739 272.091C374.007 273.96 376.213 275.852 378.353 277.741C377.733 278.003 377.113 278.277 376.492 278.562C362.62 284.93 348.531 297.08 334.655 317.223C302.334 364.141 301.644 407.099 301.114 440.152C301.065 443.221 301.017 446.205 300.945 449.098C300.523 466.147 299.271 479.986 292.141 489.786C285.026 499.566 271.991 505.4 247.794 506.235L247.794 506.824C272.04 505.987 285.297 500.14 292.574 490.138C299.836 480.157 301.076 466.115 301.498 449.094C301.57 446.199 301.618 443.215 301.667 440.147C302.199 407.1 302.887 364.318 335.097 317.562C348.929 297.483 362.941 285.416 376.697 279.102C377.409 278.775 378.121 278.463 378.833 278.166C381.884 280.873 384.799 283.573 387.563 286.194C377.691 293.227 367.775 303.473 357.964 317.714C325.643 364.631 324.953 407.59 324.423 440.642C324.374 443.712 324.326 446.695 324.254 449.589C323.832 466.638 322.58 480.477 315.45 490.277C308.335 500.056 295.3 505.89 271.103 506.726L271.103 507.315C295.349 506.478 308.606 500.63 315.883 490.629C323.145 480.647 324.385 466.606 324.807 449.585C324.879 446.689 324.927 443.705 324.976 440.637C325.508 407.59 326.196 364.808 358.406 318.053C368.226 303.797 378.137 293.58 387.983 286.593C388.422 287.01 388.856 287.425 389.287 287.838L389.664 287.393C389.269 287.015 388.87 286.634 388.468 286.252C388.838 285.993 389.208 285.739 389.578 285.49C394.56 289.763 399.213 294.085 403.483 298.172L403.86 297.728C399.632 293.68 395.021 289.396 390.081 285.152C391.183 284.42 392.284 283.728 393.384 283.075C403.431 290.393 412.526 298.653 420.337 306.132L420.714 305.687C412.963 298.266 403.927 290.053 393.935 282.751C395.669 281.741 397.4 280.826 399.127 280.003C414.542 288.849 428.311 301.119 439.461 311.795L439.838 311.35C428.781 300.764 415.108 288.566 399.776 279.698L399.859 279.66L400.006 279.592C402.178 278.595 404.344 277.741 406.502 277.022C427.411 285.358 446.057 301.705 460.382 315.421L460.759 314.976C446.589 301.409 428.124 285.197 407.376 276.738C410.009 275.903 412.63 275.268 415.237 274.815C415.769 274.924 416.299 275.039 416.829 275.16C442.569 281.056 465.664 301.045 482.67 317.328L483.047 316.883C466.044 300.604 442.856 280.515 416.962 274.584L416.847 274.558C424.78 273.403 432.573 273.918 440.138 275.651C465.878 281.547 488.973 301.536 505.979 317.818L506.356 317.374ZM371.334 269.142L371.165 269.11L371.335 269.188L371.432 269.233L371.334 269.142ZM374.206 271.806C375.462 272.982 376.688 274.145 377.884 275.291L378.261 274.846C377.193 273.823 376.1 272.786 374.984 271.737C375.052 271.732 375.12 271.727 375.188 271.721C377.79 273.058 380.349 274.501 382.862 276.03C381.938 276.341 381.014 276.677 380.088 277.037C377.791 275.286 375.441 273.576 373.04 271.928C373.429 271.883 373.818 271.842 374.206 271.806ZM372.882 270.571C373.134 270.805 373.385 271.039 373.636 271.272C373.192 271.318 372.748 271.369 372.304 271.425C371.48 270.867 370.651 270.316 369.816 269.773C369.34 269.392 368.862 269.012 368.382 268.633L368.546 268.658C368.622 268.669 368.698 268.681 368.773 268.693C370.154 269.286 371.523 269.913 372.882 270.571ZM373.196 270.068C372.944 269.835 372.692 269.601 372.438 269.367C372.833 269.45 373.226 269.537 373.62 269.627C375.308 270.014 376.984 270.461 378.649 270.964C377.539 270.986 376.427 271.038 375.311 271.122C374.609 270.763 373.904 270.411 373.196 270.068ZM378.951 277.492C377.55 276.252 376.12 275.01 374.662 273.773C376.282 274.921 377.879 276.095 379.451 277.289L379.333 277.336C379.206 277.388 379.079 277.44 378.951 277.492ZM388.047 285.852C385.321 283.265 382.445 280.597 379.433 277.919C379.618 277.844 379.803 277.77 379.988 277.698C383.14 280.109 386.191 282.598 389.129 285.106C388.768 285.35 388.408 285.599 388.047 285.852ZM389.631 284.767C390.715 284.043 391.799 283.358 392.881 282.709C389.84 280.511 386.713 278.401 383.509 276.427C382.55 276.741 381.589 277.082 380.626 277.45C383.732 279.835 386.738 282.293 389.631 284.767ZM383.594 275.789C381.21 274.326 378.783 272.938 376.318 271.644C377.714 271.562 379.105 271.53 380.491 271.545C383.098 272.401 385.674 273.39 388.214 274.493C386.678 274.859 385.138 275.29 383.594 275.789ZM393.43 282.383C390.449 280.221 387.385 278.142 384.245 276.191C385.87 275.682 387.491 275.248 389.106 274.885C392.304 276.311 395.444 277.915 398.519 279.657C396.826 280.477 395.129 281.385 393.43 282.383ZM399.549 279.169L399.681 279.108L399.802 279.052C401.761 278.152 403.717 277.368 405.666 276.693C402.638 275.521 399.563 274.518 396.448 273.717C394.335 273.918 392.211 274.235 390.078 274.676C393.164 276.083 396.196 277.652 399.166 279.348C399.227 279.319 399.289 279.29 399.35 279.261L399.471 279.205L399.549 279.169ZM389.178 274.271C391.053 273.856 392.921 273.538 394.78 273.309L394.671 273.283L394.541 273.253C390.579 272.346 386.554 271.772 382.479 271.598C384.738 272.396 386.971 273.292 389.178 274.271ZM406.535 276.399C403.796 275.314 401.017 274.365 398.204 273.576C403.439 273.234 408.604 273.59 413.674 274.512C411.305 274.986 408.925 275.611 406.535 276.399ZM303.357 218.177C329.251 224.108 352.439 244.197 369.442 260.476L369.065 260.921C352.059 244.638 328.964 224.649 303.224 218.753C290.363 215.807 276.845 216.381 263.092 222.695C249.337 229.009 235.324 241.076 221.492 261.155C189.282 307.911 188.594 350.693 188.062 383.739C188.013 386.807 187.965 389.792 187.893 392.687C187.471 409.708 186.231 423.75 178.969 433.731C171.692 443.733 158.435 449.58 134.189 450.417L134.19 449.828C158.387 448.993 171.421 443.159 178.536 433.379C185.666 423.579 186.918 409.74 187.34 392.691C187.412 389.798 187.46 386.814 187.509 383.745C188.04 350.692 188.729 307.734 221.05 260.816C234.926 240.673 249.015 228.523 262.888 222.154C276.763 215.785 290.401 215.209 303.357 218.177ZM362.727 244.765C345.724 228.486 322.537 208.397 296.642 202.466C283.686 199.498 270.048 200.074 256.173 206.443C242.3 212.812 228.212 224.962 214.335 245.105C182.014 292.023 181.325 334.981 180.795 368.034C180.745 371.103 180.698 374.087 180.626 376.98C180.203 394.029 178.952 407.868 171.822 417.668C164.707 427.448 151.672 433.282 127.475 434.117L127.475 434.706C151.721 433.869 164.978 428.022 172.254 418.02C179.516 408.039 180.757 393.997 181.179 376.976C181.25 374.081 181.298 371.097 181.348 368.029C181.879 334.982 182.568 292.2 214.777 245.444C228.609 225.365 242.622 213.298 256.377 206.984C270.13 200.67 283.648 200.096 296.509 203.042C322.25 208.938 345.345 228.927 362.35 245.21L362.727 244.765ZM291.442 185.859C317.336 191.79 340.524 211.879 357.527 228.158L357.15 228.603C340.144 212.321 317.049 192.331 291.308 186.435C278.447 183.49 264.93 184.063 251.177 190.377C237.421 196.691 223.409 208.758 209.576 228.837C177.367 275.593 176.679 318.375 176.147 351.422L176.147 351.429C176.097 354.495 176.049 357.476 175.978 360.369C175.556 377.39 174.315 391.432 167.054 401.413C159.777 411.415 146.52 417.262 122.274 418.099L122.274 417.51C146.471 416.675 159.506 410.841 166.621 401.061C173.751 391.261 175.003 377.422 175.425 360.373C175.497 357.485 175.544 354.506 175.594 351.442L175.594 351.435L175.594 351.427C176.124 318.374 176.814 275.416 209.135 228.498C223.011 208.355 237.1 196.205 250.972 189.837C264.848 183.467 278.485 182.891 291.442 185.859ZM353.268 211.025C336.265 194.746 313.077 174.657 287.183 168.726C274.227 165.758 260.589 166.334 246.714 172.704C232.841 179.072 218.753 191.222 204.876 211.365C172.555 258.283 171.866 301.241 171.335 334.294C171.286 337.363 171.238 340.347 171.167 343.24C170.744 360.289 169.492 374.128 162.363 383.928C155.248 393.708 142.213 399.542 118.016 400.377L118.015 400.966C142.262 400.129 155.518 394.282 162.795 384.28C170.057 374.299 171.297 360.257 171.719 343.236C171.791 340.341 171.839 337.357 171.888 334.289C172.42 301.242 173.108 258.46 205.318 211.704C219.15 191.625 233.163 179.558 246.918 173.244C260.671 166.93 274.189 166.356 287.05 169.302C312.79 175.198 335.885 195.187 352.891 211.47L353.268 211.025ZM283.385 151.343C309.279 157.274 332.467 177.363 349.47 193.643L349.093 194.087C332.088 177.805 308.993 157.815 283.252 151.92C270.391 148.974 256.873 149.548 243.12 155.861C229.365 162.176 215.352 174.242 201.52 194.321C169.311 241.077 168.622 283.859 168.091 316.906L168.09 316.914C168.041 319.979 167.993 322.96 167.921 325.854C167.5 342.874 166.259 356.916 158.997 366.897C151.721 376.899 138.464 382.747 114.218 383.583L114.218 382.994C138.415 382.159 151.45 376.325 158.565 366.546C165.695 356.746 166.946 342.907 167.369 325.857C167.44 322.971 167.488 319.994 167.537 316.932L167.537 316.928L167.538 316.914L167.538 316.911C168.068 283.859 168.757 240.9 201.078 193.983C214.955 173.84 229.043 161.689 242.916 155.321C256.791 148.951 270.429 148.376 283.385 151.343ZM345.75 176.22C328.747 159.941 305.559 139.852 279.665 133.921C266.709 130.953 253.071 131.529 239.196 137.899C225.323 144.267 211.235 156.417 197.358 176.56C165.037 223.478 164.348 266.436 163.817 299.489C163.768 302.558 163.72 305.542 163.649 308.435C163.226 325.484 161.975 339.323 154.845 349.123C147.73 358.903 134.695 364.737 110.498 365.572L110.497 366.161C134.744 365.324 148 359.477 155.277 349.475C162.539 339.494 163.779 325.452 164.201 308.431C164.273 305.536 164.321 302.552 164.37 299.484C164.902 266.437 165.59 223.655 197.8 176.899C211.632 156.82 225.645 144.753 239.4 138.439C253.153 132.125 266.671 131.551 279.532 134.497C305.273 140.393 328.367 160.382 345.373 176.665L345.75 176.22ZM275.734 116.608C301.629 122.539 324.816 142.628 341.819 158.908L341.443 159.352C324.437 143.07 301.342 123.081 275.601 117.185C262.74 114.239 249.222 114.813 235.47 121.126C221.714 127.441 207.702 139.508 193.869 159.586C161.66 206.342 160.971 249.124 160.44 282.171L160.44 282.176L160.439 282.207C160.39 285.262 160.342 288.234 160.271 291.119C159.849 308.14 158.608 322.181 151.347 332.162C144.07 342.164 130.813 348.012 106.567 348.849L106.567 348.259C130.764 347.424 143.799 341.59 150.914 331.811C158.044 322.011 159.295 308.172 159.718 291.123C159.79 288.229 159.838 285.245 159.887 282.176C160.417 249.124 161.107 206.165 193.428 159.248C207.304 139.105 221.392 126.955 235.265 120.586C249.141 114.216 262.778 113.641 275.734 116.608ZM337.467 141.826C320.464 125.547 297.276 105.458 271.382 99.5265C258.426 96.5588 244.788 97.1344 230.913 103.504C217.04 109.873 202.952 122.023 189.075 142.166C156.754 189.083 156.065 232.042 155.535 265.094C155.485 268.164 155.437 271.147 155.366 274.041C154.943 291.09 153.692 304.929 146.562 314.729C139.447 324.508 126.412 330.343 102.215 331.178L102.214 331.767C126.461 330.93 139.717 325.082 146.994 315.081C154.256 305.099 155.497 291.058 155.918 274.037C155.99 271.141 156.038 268.157 156.088 265.089C156.619 232.043 157.307 189.26 189.517 142.505C203.349 122.426 217.362 110.359 231.117 104.044C244.87 97.7309 258.388 97.1571 271.249 100.103C296.99 105.999 320.084 125.988 337.09 142.27L337.467 141.826ZM266.463 82.7619C292.357 88.6929 315.545 108.782 332.548 125.061L332.171 125.506C315.165 109.224 292.07 89.2342 266.33 83.3384C253.468 80.3925 239.951 80.9663 226.198 87.2798C212.442 93.5945 198.43 105.661 184.598 125.74C152.388 172.496 151.7 215.278 151.168 248.325L151.168 248.331L151.168 248.337C151.118 251.401 151.07 254.381 150.999 257.272C150.577 274.293 149.337 288.335 142.075 298.316C134.798 308.318 121.541 314.165 97.2949 315.002L97.2953 314.413C121.492 313.578 134.527 307.744 141.642 297.965C148.772 288.164 150.024 274.325 150.446 257.276C150.518 254.385 150.566 251.404 150.615 248.337L150.615 248.33C151.145 215.277 151.835 172.319 184.156 125.402C198.032 105.258 212.121 93.1081 225.993 86.7396C239.869 80.3699 253.506 79.7943 266.463 82.7619ZM326.963 108.675C309.96 92.3955 286.773 72.3065 260.878 66.3755C247.922 63.4078 234.285 63.9835 220.409 70.3532C206.536 76.7217 192.448 88.872 178.572 109.015C146.25 155.932 145.561 198.891 145.031 231.943C144.982 235.013 144.934 237.996 144.862 240.89C144.439 257.939 143.188 271.778 136.058 281.578C128.943 291.358 115.908 297.192 91.7111 298.027L91.7107 298.616C115.957 297.779 129.214 291.931 136.491 281.93C143.752 271.948 144.993 257.907 145.415 240.886C145.486 237.99 145.534 235.006 145.584 231.938C146.115 198.892 146.804 156.109 179.013 109.354C192.846 89.2748 206.858 77.2081 220.614 70.8934C234.366 64.5799 247.884 64.0061 260.745 66.9519C286.486 72.8478 309.581 92.8371 326.587 109.119L326.963 108.675Z" fill="url(#paint0_radial_147_102)" fill-opacity="0.58"/>
<defs>
<radialGradient id="paint0_radial_147_102" cx="0" cy="0" r="1" gradientUnits="userSpaceOnUse" gradientTransform="translate(252.995 257.56) rotate(133.346) scale(202.361 204.517)">
<stop stop-color="white"/>
<stop offset="1" stop-color="#1E1E1E" stop-opacity="0"/>
<stop offset="1" stop-color="#0E0E35" stop-opacity="0"/>
<stop offset="1" stop-color="white" stop-opacity="0"/>
</radialGradient>
</defs>
</svg>
