<svg width="226" height="210" viewBox="0 0 226 210" fill="none" xmlns="http://www.w3.org/2000/svg">
<path fill-rule="evenodd" clip-rule="evenodd" d="M216.709 -188.882C206.64 -173.797 194.501 -153.494 193.476 -133.034C193.155 -126.631 193.922 -120.212 196.181 -113.932C196.056 -109.122 196.561 -104.309 197.867 -99.5587C197.831 -99.078 197.801 -98.5972 197.777 -98.1162C197.594 -94.4727 197.764 -90.8237 198.36 -87.198C198.103 -85.3875 197.925 -83.5723 197.834 -81.7558C197.806 -81.1941 197.786 -80.6322 197.775 -80.0704C188.696 -65.8023 179.299 -48.0295 178.403 -30.1355C177.889 -19.8956 180.159 -9.6121 186.864 0.0732928C193.566 9.7563 204.687 18.8217 221.841 26.6501C261.797 44.8848 294.504 39.6382 319.654 35.6037C321.989 35.2291 324.259 34.8649 326.464 34.531C339.46 32.5626 350.105 31.6599 358.475 35.7429C366.821 39.8148 372.991 48.8967 376.872 67.1382L377.452 67.0359C373.561 48.7464 367.339 39.4481 358.746 35.2556C350.175 31.0744 339.332 32.0233 326.364 33.9874C324.16 34.3212 321.893 34.6848 319.562 35.0585L319.556 35.0595L319.552 35.0601C294.408 39.0923 261.875 44.3093 222.097 26.156C205.014 18.36 193.989 9.3549 187.36 -0.222025C180.732 -9.79657 178.485 -19.9624 178.993 -30.1048C179.866 -47.524 188.865 -64.8621 197.764 -78.9652C197.764 -78.6362 197.768 -78.3073 197.774 -77.9784C197.611 -77.2844 197.459 -76.5891 197.317 -75.8927C191.583 -64.8612 187.004 -52.6947 186.392 -40.4717C185.879 -30.2319 188.148 -19.9483 194.853 -10.263C201.555 -0.579944 212.676 8.48544 229.83 16.3139C269.787 34.5486 302.493 29.3019 327.643 25.2675C329.978 24.8929 332.248 24.5287 334.453 24.1947C347.449 22.2263 358.094 21.3236 366.464 25.4067C374.81 29.4785 380.981 38.5605 384.861 56.8019L385.441 56.6997C381.551 38.4101 375.328 29.1119 366.735 24.9194C358.164 20.7381 347.321 21.687 334.353 23.6512C332.146 23.9854 329.876 24.3496 327.541 24.7239C302.397 28.756 269.864 33.973 230.086 15.8198C213.003 8.02376 201.978 -0.981339 195.349 -10.5583C188.722 -20.1328 186.474 -30.2987 186.983 -40.4411C187.557 -51.9049 191.651 -63.3337 196.92 -73.8284C194.405 -66.9259 192.686 -59.7875 192.328 -52.6297C191.815 -42.3898 194.085 -32.1063 200.789 -22.4209C207.491 -12.7379 218.612 -3.67254 235.766 4.15587C275.723 22.3906 308.429 17.1439 333.579 13.1095L333.584 13.1088L333.595 13.1068L333.603 13.1056L333.607 13.1049L333.622 13.1026C335.942 12.7305 338.198 12.3687 340.389 12.0367C353.385 10.0683 364.03 9.16566 372.4 13.2487C380.747 17.3206 386.917 26.4025 390.797 44.6439L391.377 44.5417C387.487 26.2521 381.265 16.9539 372.671 12.7614C364.1 8.58014 353.257 9.52904 340.289 11.4932C338.082 11.8275 335.812 12.1916 333.477 12.5659L333.477 12.5659C308.333 16.5981 275.8 21.815 236.023 3.66183C218.94 -4.13421 207.914 -13.1393 201.285 -22.7162C194.658 -32.2908 192.41 -42.4567 192.919 -52.599C193.224 -58.7005 194.527 -64.792 196.473 -70.738C196.3 -69.3224 196.175 -67.9044 196.104 -66.4856C195.591 -56.2458 197.861 -45.9622 204.565 -36.2768C211.268 -26.5938 222.388 -17.5284 239.542 -9.70004C279.499 8.53468 312.205 3.28802 337.355 -0.74642L337.358 -0.746843C339.692 -1.12132 341.962 -1.48534 344.166 -1.81916C357.161 -3.78758 367.807 -4.69027 376.176 -0.607227C384.523 3.46464 390.693 12.5466 394.573 30.788L395.154 30.6858C391.263 12.3962 385.041 3.09795 376.447 -1.09449C367.876 -5.27577 357.033 -4.32687 344.065 -2.36272C341.859 -2.02846 339.588 -1.66434 337.254 -1.29001C312.109 2.74214 279.577 7.9591 239.799 -10.1941C222.716 -17.9901 211.691 -26.9952 205.061 -36.5722C198.434 -46.1467 196.187 -56.3126 196.695 -66.455C196.817 -68.888 197.097 -71.3194 197.514 -73.7407C197.65 -74.1124 197.788 -74.4835 197.928 -74.8538C198.565 -66.9247 201.097 -59.0561 206.295 -51.547C212.997 -41.864 224.118 -32.7986 241.272 -24.9702C281.229 -6.73547 313.935 -11.9821 339.085 -16.0166L339.088 -16.017C341.422 -16.3915 343.691 -16.7555 345.895 -17.0893C358.891 -19.0577 369.537 -19.9604 377.906 -15.8774C386.253 -11.8055 392.423 -2.72357 396.303 15.5179L396.883 15.4156C392.993 -2.87393 386.771 -12.1722 378.177 -16.3646C369.606 -20.5459 358.763 -19.597 345.795 -17.6329C343.594 -17.2995 341.33 -16.9364 339.002 -16.5632L338.994 -16.5618L338.99 -16.5613L338.983 -16.5602C313.839 -12.528 281.307 -7.31104 241.529 -25.4642C224.446 -33.2603 213.42 -42.2654 206.791 -51.8423C201.377 -59.6643 198.886 -67.8809 198.433 -76.157C198.763 -76.9942 199.105 -77.8276 199.456 -78.6568C199.69 -79.0841 199.926 -79.5096 200.162 -79.933C201.533 -75.8548 203.521 -71.832 206.238 -67.9075C212.94 -58.2245 224.061 -49.1591 241.215 -41.3307C281.172 -23.096 313.878 -28.3426 339.028 -32.377L339.035 -32.3782C341.368 -32.7524 343.636 -33.1162 345.838 -33.4498C358.834 -35.4182 369.479 -36.3209 377.849 -32.2379C386.196 -28.166 392.366 -19.0841 396.246 -0.842599L396.826 -0.944863C392.936 -19.2344 386.714 -28.5327 378.12 -32.7251C369.549 -36.9064 358.706 -35.9575 345.738 -33.9934C343.533 -33.6594 341.264 -33.2956 338.932 -32.9215L338.928 -32.9209L338.926 -32.9206C313.782 -28.8885 281.249 -23.6715 241.472 -41.8247C224.389 -49.6208 213.363 -58.6259 206.734 -68.2028C203.93 -72.2533 201.911 -76.4097 200.552 -80.6254C201.642 -82.5556 202.757 -84.444 203.88 -86.2842C204.144 -85.8797 204.415 -85.4761 204.693 -85.0736C211.396 -75.3906 222.517 -66.3252 239.671 -58.4968C279.627 -40.2621 312.334 -45.5088 337.483 -49.5432L337.485 -49.5435C339.82 -49.918 342.09 -50.2821 344.294 -50.6159C357.289 -52.5843 367.935 -53.487 376.304 -49.404C384.651 -45.3321 390.821 -36.2502 394.702 -18.0087L395.282 -18.111C391.391 -36.4005 385.169 -45.6988 376.575 -49.8913C368.004 -54.0725 357.161 -53.1236 344.194 -51.1595C341.989 -50.8255 339.72 -50.4617 337.388 -50.0877L337.383 -50.087L337.382 -50.0868C312.238 -46.0546 279.705 -40.8377 239.927 -58.9909C222.844 -66.7869 211.819 -75.792 205.19 -85.3689C204.853 -85.8546 204.528 -86.3418 204.215 -86.8305C205.836 -89.4713 207.471 -92.0105 209.067 -94.4286C215.729 -87.8984 224.823 -81.7659 236.914 -76.248C276.871 -58.0133 309.577 -63.2599 334.727 -67.2944C337.062 -67.669 339.332 -68.0332 341.537 -68.3671C354.533 -70.3355 365.178 -71.2382 373.548 -67.1552C381.895 -63.0833 388.065 -54.0014 391.945 -35.7599L392.525 -35.8622C388.635 -54.1517 382.413 -63.45 373.819 -67.6424C365.248 -71.8237 354.405 -70.8748 341.437 -68.9106C339.23 -68.5764 336.96 -68.2123 334.625 -67.8379C309.481 -63.8058 276.948 -58.5888 237.171 -76.742C225.064 -82.267 216 -88.3991 209.387 -94.9117C209.635 -95.2864 209.882 -95.6581 210.128 -96.0268L209.625 -96.3205C209.406 -95.9927 209.187 -95.6625 208.966 -95.3299C208.753 -95.5442 208.542 -95.7588 208.333 -95.9739C210.899 -100.312 213.544 -104.408 216.065 -108.185L215.561 -108.478C213.072 -104.749 210.457 -100.701 207.914 -96.4111C207.244 -97.1162 206.601 -97.8256 205.986 -98.5388C210.184 -107.125 215.221 -115.12 219.841 -122.041L219.338 -122.334C214.764 -115.483 209.764 -107.555 205.572 -99.0245C204.607 -100.168 203.711 -101.322 202.881 -102.484C207.521 -115.347 214.972 -127.425 221.571 -137.311L221.067 -137.605C214.54 -127.826 207.144 -115.855 202.468 -103.07L202.433 -103.12C201.391 -104.626 200.457 -106.146 199.625 -107.679C203.145 -124.641 213.033 -140.966 221.514 -153.671L221.01 -153.965C212.649 -141.439 202.861 -125.316 199.194 -108.492C198.249 -110.316 197.446 -112.157 196.775 -114.011C196.786 -114.424 196.802 -114.838 196.823 -115.252C197.84 -135.555 209.898 -155.749 219.969 -170.837L219.466 -171.131C209.441 -156.113 197.365 -135.924 196.247 -115.555C194.396 -121.3 193.774 -127.156 194.067 -133.003C195.084 -153.306 207.141 -173.5 217.213 -188.589L216.709 -188.882ZM199.235 -81.2693C198.92 -80.1567 198.63 -79.04 198.366 -77.92L198.367 -77.8777C198.55 -78.2166 198.733 -78.5543 198.918 -78.8909C199.214 -79.5888 199.517 -80.2837 199.826 -80.9753C199.741 -81.2503 199.658 -81.5256 199.579 -81.8011C199.464 -81.6244 199.349 -81.4471 199.235 -81.2693ZM200.004 -82.4552C200.065 -82.233 200.129 -82.0109 200.194 -81.7891C200.715 -82.9329 201.254 -84.0674 201.807 -85.1915C201.211 -84.2965 200.609 -83.3841 200.004 -82.4552ZM202.073 -85.7294C202.389 -86.366 202.71 -86.9991 203.035 -87.6286C202.669 -88.2312 202.319 -88.8357 201.985 -89.4423C201.19 -87.3924 200.462 -85.3201 199.816 -83.2312C200.428 -84.1667 201.036 -85.0847 201.636 -85.9842L202.073 -85.7294ZM198.685 -81.4906C198.848 -82.0664 199.018 -82.6411 199.194 -83.2145C199.018 -83.9054 198.858 -84.5976 198.714 -85.2908C198.582 -84.1033 198.484 -82.9144 198.425 -81.7251C198.413 -81.4967 198.403 -81.2683 198.395 -81.0399C198.491 -81.1905 198.588 -81.3408 198.685 -81.4906ZM203.53 -86.8296C203.053 -86.0509 202.578 -85.2633 202.105 -84.4673C202.526 -85.3331 202.956 -86.193 203.394 -87.0464C203.439 -86.9741 203.484 -86.9018 203.53 -86.8296ZM208.646 -94.8458C207.076 -92.4706 205.467 -89.9755 203.867 -87.3789C203.812 -87.4677 203.757 -87.5565 203.702 -87.6454C205.09 -90.3223 206.547 -92.934 208.033 -95.4653C208.235 -95.2584 208.439 -95.0519 208.646 -94.8458ZM207.612 -95.9012C206.954 -96.5898 206.321 -97.2827 205.714 -97.9794C204.476 -95.4164 203.314 -92.8018 202.262 -90.1484C202.606 -89.5072 202.968 -88.8682 203.347 -88.2314C204.717 -90.8577 206.151 -93.4191 207.612 -95.9012ZM201.619 -90.1203C200.863 -88.199 200.164 -86.257 199.535 -84.2993C199.311 -85.2637 199.119 -86.2305 198.958 -87.1991C199.247 -89.2211 199.635 -91.2376 200.109 -93.2435C200.568 -92.1975 201.071 -91.1562 201.619 -90.1203ZM205.297 -98.4632C204.085 -95.9661 202.943 -93.4186 201.903 -90.8324C201.329 -91.9455 200.809 -93.0646 200.339 -94.1891C200.98 -96.7566 201.758 -99.3055 202.646 -101.825C203.467 -100.695 204.35 -99.5744 205.297 -98.4632ZM202.228 -102.408C202.13 -102.547 202.033 -102.686 201.937 -102.825C201.027 -104.139 200.199 -105.465 199.448 -106.8C198.984 -104.41 198.649 -102.009 198.464 -99.6042C198.881 -98.099 199.38 -96.6004 199.965 -95.1105C200.605 -97.5647 201.368 -100 202.228 -102.408ZM199.721 -94.1524C199.207 -95.3943 198.754 -96.6424 198.358 -97.8954C198.222 -94.9852 198.314 -92.0734 198.672 -89.1745C198.961 -90.8399 199.313 -92.5001 199.721 -94.1524ZM199.006 -107.603C198.578 -105.515 198.247 -103.417 198.026 -101.314C197.158 -104.992 196.761 -108.704 196.754 -112.422C197.401 -110.804 198.149 -109.197 199.006 -107.603ZM168.684 -21.5154C169.709 -41.9763 181.848 -62.2787 191.917 -77.3641L192.42 -77.0704C182.349 -61.9817 170.292 -41.7882 169.274 -21.4847C168.766 -11.3424 171.013 -1.1765 177.641 8.39805C184.27 17.975 195.295 26.9801 212.378 34.7761C252.156 52.9293 284.689 47.7124 309.833 43.6802C312.168 43.3059 314.438 42.9418 316.645 42.6075C329.613 40.6433 340.456 39.6944 349.027 43.8757C357.62 48.0682 363.843 57.3664 367.733 75.656L367.153 75.7582C363.273 57.5168 357.102 48.4349 348.756 44.363C340.386 40.2799 329.741 41.1826 316.745 43.151C314.54 43.485 312.27 43.8492 309.935 44.2238C284.785 48.2582 252.079 53.5049 212.122 35.2702C194.968 27.4418 183.847 18.3764 177.145 8.69336C170.44 -0.992031 168.17 -11.2755 168.684 -21.5154ZM180.898 -70.1606C170.828 -55.0751 158.689 -34.7728 157.664 -14.3118C157.151 -4.07199 159.421 6.21153 166.125 15.8969C172.828 25.5799 183.948 34.6453 201.102 42.4737C241.059 60.7084 273.765 55.4618 298.915 51.4274C301.251 51.0527 303.521 50.6886 305.726 50.3546C318.721 48.3862 329.367 47.4835 337.736 51.5665C346.083 55.6384 352.253 64.7203 356.133 82.9618L356.714 82.8595C352.823 64.57 346.601 55.2717 338.007 51.0793C329.436 46.898 318.593 47.8469 305.625 49.811C303.419 50.1452 301.149 50.5093 298.815 50.8835L298.814 50.8838C273.669 54.9159 241.137 60.1329 201.359 41.9797C184.276 34.1836 173.251 25.1785 166.621 15.6016C159.994 6.02705 157.747 -4.13882 158.255 -14.2812C159.272 -34.5847 171.329 -54.7781 181.401 -69.8669L180.898 -70.1606ZM145.762 -8.13682C146.787 -28.5977 158.926 -48.9001 168.996 -63.9856L169.499 -63.6919C159.427 -48.6031 147.37 -28.4097 146.353 -8.10617C145.845 2.0362 148.092 12.2021 154.719 21.7766C161.349 31.3535 172.374 40.3587 189.457 48.1547C229.235 66.3079 261.767 61.0909 286.912 57.0588L286.916 57.0581L286.922 57.0572C289.253 56.6834 291.52 56.3198 293.724 55.9861C306.691 54.0219 317.534 53.073 326.105 57.2543C334.699 61.4467 340.921 70.745 344.812 89.0346L344.231 89.1368C340.351 70.8953 334.181 61.8134 325.834 57.7416C317.465 53.6585 306.819 54.5612 293.824 56.5296C291.632 56.8615 289.376 57.2233 287.056 57.5955L287.042 57.5978L287.037 57.5985L287.03 57.5997L287.018 57.6016L287.013 57.6024C261.864 61.6368 229.157 66.8835 189.2 48.6487C172.047 40.8203 160.926 31.755 154.223 22.0719C147.519 12.3865 145.249 2.10303 145.762 -8.13682ZM156.568 -58.4547C146.499 -43.3692 134.36 -23.0669 133.335 -2.60597C132.821 7.63387 135.091 17.9174 141.796 27.6028C148.498 37.2858 159.619 46.3512 176.773 54.1796C216.729 72.4143 249.436 67.1676 274.586 63.1332C276.921 62.7586 279.191 62.3944 281.396 62.0605C294.392 60.092 305.037 59.1894 313.407 63.2724C321.753 67.3443 327.924 76.4262 331.804 94.6676L332.384 94.5654C328.493 76.2758 322.271 66.9776 313.678 62.7851C305.107 58.6038 294.264 59.5528 281.296 61.5169C279.089 61.8512 276.818 62.2153 274.484 62.5896C249.34 66.6218 216.807 71.8387 177.029 53.6855C159.946 45.8895 148.921 36.8844 142.292 27.3075C135.664 17.7329 133.417 7.56705 133.925 -2.57533C134.943 -22.8788 147 -43.0723 157.071 -58.161L156.568 -58.4547ZM120.655 2.6088C121.68 -17.8521 133.82 -38.1545 143.889 -53.24L144.392 -52.9463C134.32 -37.8575 122.263 -17.6641 121.246 2.63944C120.738 12.7818 122.985 22.9477 129.613 32.5222C136.242 42.0992 147.267 51.1043 164.35 58.9003C204.128 77.0535 236.661 71.8365 261.805 67.8044L261.809 67.8037L261.815 67.8028C264.146 67.429 266.413 67.0654 268.617 66.7317C281.584 64.7675 292.427 63.8186 300.998 67.9999C309.592 72.1923 315.814 81.4906 319.705 99.7802L319.124 99.8824C315.244 81.641 309.074 72.559 300.727 68.4872C292.358 64.4041 281.712 65.3068 268.717 67.2752C266.514 67.6088 264.246 67.9726 261.914 68.3468L261.906 68.348C236.757 72.3824 204.05 77.6291 164.093 59.3943C146.94 51.5659 135.819 42.5006 129.116 32.8175C122.412 23.1322 120.142 12.8486 120.655 2.6088ZM131.169 -48.0788C121.1 -32.9933 108.961 -12.6909 107.936 7.76998C107.423 18.0098 109.693 28.2933 116.397 37.9787C123.099 47.6617 134.22 56.7271 151.374 64.5555C191.331 82.7903 224.037 77.5436 249.187 73.5092L249.191 73.5085C251.525 73.1341 253.794 72.7702 255.997 72.4364C268.993 70.468 279.638 69.5653 288.008 73.6484C296.355 77.7202 302.525 86.8022 306.405 105.044L306.985 104.941C303.095 86.6518 296.873 77.3535 288.279 73.1611C279.708 68.9798 268.865 69.9287 255.897 71.8929C253.693 72.2267 251.425 72.5903 249.094 72.9642L249.089 72.9649L249.085 72.9656C223.941 76.9977 191.409 82.2147 151.631 64.0615C134.548 56.2655 123.522 47.2603 116.893 37.6834C110.266 28.1089 108.018 17.943 108.527 7.80063C109.544 -12.5029 121.601 -32.6963 131.673 -47.7851L131.169 -48.0788ZM95.3279 13.0761C96.3532 -7.3848 108.492 -27.6871 118.562 -42.7726L119.065 -42.4789C108.993 -27.3902 96.9361 -7.19673 95.9188 13.1068C95.4106 23.2491 97.6578 33.415 104.285 42.9896C110.914 52.5665 121.94 61.5716 139.023 69.3676C178.801 87.5208 211.333 82.3039 236.478 78.2717L236.483 78.2708C238.815 77.8968 241.084 77.533 243.289 77.199C256.257 75.2349 267.1 74.286 275.671 78.4672C284.265 82.6597 290.487 91.9579 294.377 110.248L293.797 110.35C289.917 92.1083 283.747 83.0264 275.4 78.9545C267.031 74.8715 256.385 75.7742 243.389 77.7426C241.186 78.0763 238.917 78.4403 236.583 78.8147L236.582 78.8148L236.579 78.8153C211.429 82.8497 178.723 88.0964 138.766 69.8617C121.612 62.0333 110.491 52.9679 103.789 43.2849C97.0847 33.5995 94.8148 23.316 95.3279 13.0761ZM106.185 -37.1777C96.1159 -22.0922 83.9768 -1.78984 82.9515 18.6711C82.4384 28.9109 84.7083 39.1945 91.4125 48.8798C98.1151 58.5629 109.236 67.6282 126.39 75.4567C166.346 93.6914 199.053 88.4447 224.203 84.4103C226.538 84.0357 228.808 83.6715 231.013 83.3375C244.009 81.3691 254.654 80.4664 263.024 84.5495C271.37 88.6213 277.541 97.7032 281.421 115.945L282.001 115.842C278.11 97.5529 271.888 88.2546 263.295 84.0622C254.724 79.8809 243.881 80.8298 230.913 82.794C228.706 83.1282 226.435 83.4924 224.101 83.8667C198.957 87.8988 166.424 93.1158 126.646 74.9626C109.563 67.1666 98.538 58.1614 91.9089 48.5845C85.2814 39.01 83.0342 28.8441 83.5424 18.7017C84.5597 -1.60177 96.6169 -21.7952 106.688 -36.884L106.185 -37.1777ZM70.8919 24.6541C71.9172 4.19317 84.0562 -16.1092 94.1255 -31.1947L94.6287 -30.901C84.5572 -15.8122 72.5001 4.38123 71.4828 24.6847C70.9746 34.8271 73.2218 44.993 79.8493 54.5675C86.4784 64.1445 97.5037 73.1496 114.587 80.9456C154.365 99.0988 186.897 93.8818 212.042 89.8497L212.047 89.8488C214.379 89.4748 216.648 89.111 218.853 88.777C231.821 86.8128 242.664 85.8639 251.235 90.0452C259.829 94.2376 266.051 103.536 269.941 121.825L269.361 121.928C265.481 103.686 259.311 94.6043 250.964 90.5325C242.595 86.4494 231.949 87.3521 218.953 89.3205C216.755 89.6535 214.492 90.0165 212.164 90.3899L212.149 90.3923L212.143 90.3933C186.993 94.4277 154.287 99.6744 114.33 81.4396C97.1763 73.6112 86.0555 64.5459 79.3529 54.8628C72.6487 45.1775 70.3788 34.8939 70.8919 24.6541ZM82.4424 -24.7582C72.3732 -9.67274 60.2341 10.6296 59.2089 31.0905C58.6958 41.3304 60.9657 51.6139 67.6698 61.2993C74.3724 70.9823 85.4933 80.0477 102.647 87.8761C142.604 106.111 175.31 100.864 200.46 96.8297L200.461 96.8295C202.796 96.455 205.066 96.0909 207.27 95.757C220.266 93.7886 230.912 92.8859 239.281 96.9689C247.628 101.041 253.798 110.123 257.678 128.364L258.258 128.262C254.368 109.972 248.146 100.674 239.552 96.4816C230.981 92.3004 220.138 93.2493 207.17 95.2134C204.964 95.5476 202.693 95.9117 200.359 96.286L200.358 96.2861C175.214 100.318 142.682 105.535 102.904 87.382C85.8206 79.586 74.7953 70.5809 68.1662 61.004C61.5387 51.4294 59.2915 41.2636 59.7997 31.1212C60.8171 10.8177 72.8742 -9.37575 82.9456 -24.4645L82.4424 -24.7582Z" fill="url(#paint0_radial_138_104)" fill-opacity="0.58"/>
<defs>
<radialGradient id="paint0_radial_138_104" cx="0" cy="0" r="1" gradientUnits="userSpaceOnUse" gradientTransform="translate(205.375 11.4073) rotate(33.312) scale(155.973 157.648)">
<stop stop-color="white"/>
<stop offset="1" stop-color="#1E1E1E" stop-opacity="0"/>
<stop offset="1" stop-color="#0E0E35" stop-opacity="0"/>
<stop offset="1" stop-color="white" stop-opacity="0"/>
</radialGradient>
</defs>
</svg>
